<svg id="Layer_1" data-name="Layer 1" xmlns="http://www.w3.org/2000/svg" viewBox="0 0 4910.32 4888.45"><defs><style>.cls-1,.cls-10,.cls-11,.cls-12,.cls-13,.cls-2,.cls-3,.cls-5,.cls-6,.cls-7,.cls-8{fill:none;}.cls-1,.cls-12,.cls-7{stroke:#f3587d;}.cls-1,.cls-10,.cls-11,.cls-12,.cls-13,.cls-2,.cls-3,.cls-5,.cls-7,.cls-8{stroke-miterlimit:10;}.cls-1,.cls-2,.cls-3{stroke-width:20px;}.cls-2,.cls-8{stroke:#11bc92;}.cls-13,.cls-3,.cls-5{stroke:#5932c4;}.cls-4{fill:#11bc92;}.cls-10,.cls-5,.cls-7,.cls-8{stroke-width:14px;}.cls-9{fill:#5932c4;}.cls-10{stroke:#049670;}.cls-11{stroke:#02e2ac;}.cls-11,.cls-12,.cls-13{stroke-width:16px;}</style></defs><title>artipedia_schwag</title><path class="cls-1" d="M1523.36,3252.07q22.8,4.32,45.8,9.69c260.68,61,465.5,211.06,531.59,307.8,30.13,44.12,58.48,95.38,58.48,95.38q4.3,7.77,8.36,15.35" transform="translate(-61.68 -55.5)"/><path class="cls-1" d="M1831.3,1706.49c-29.11-90.37-30.56-180.79-30.56-180.79-.76-47.29,4.1-100.65,10.9-101,7.39-.33-16.78,129.44,49.74,229.22,27.49,41.23,59.76,61.36,115,95,115.61,70.31,219,95.94,242.47,101.51,205.92,48.94,407.33,15.29,512.93-3.27,376.48-66.16,567.43-217.71,609.3-255.42,23.43-21.1,66.08-65.91,104.66-124.43,24.91-37.78,37.27-65.06,45.59-93.87a296.53,296.53,0,0,0,11.4-76.4c1.17-67-21.24-111.69-17.78-113.26,5.44-2.49,84.7,99.07,88.24,191.85,9.94,260.09-405.27,487.18-695.3,569.76-279.52,79.6-550.72,55.72-746.08-8.32l-165.28-15.14-20.72-84" transform="translate(-61.68 -55.5)"/><path class="cls-1" d="M1276.62,1654.12l-92.93,533.59c1.45,12.48-2.49,19.38-4.14,21.83-9.3,13.83-33.63,17.5-58,4.37L877,1960.68" transform="translate(-61.68 -55.5)"/><path class="cls-2" d="M1327.73,3349.17c22.15-1.54,41.83-2.23,58.54-2.48" transform="translate(-61.68 -55.5)"/><path class="cls-3" d="M3161.83,2477c77.73,163.05,144.74,294.46,192.74,386.4,109.16,209.08,124.09,222,167.87,327.45,57.57,138.67,59.26,182.6,118.13,268.51,83.19,121.41,144.39,127.91,143,183.38-1.83,72.77-108.11,98.66-366.83,262-138.23,87.25-208.18,132.06-248.69,189.92-89.87,128.36-50.38,210.91-143,293.62-71.75,64.07-178.64,88.81-267.34,72-117.64-22.25-172.95-111.79-206.21-87.32-28.3,20.82-19.65,108.76,19.69,172.46,74,119.78,222.45,98.62,236.26,163.72C2825,4791.76,2602.28,4934,2602.28,4934H3702.74s185.44-243.95,589.61-569.76c179.15-144.42,253.82-178.73,357.5-303.45,172.63-207.66,240.25-442.93,270.45-608a1731.51,1731.51,0,0,0,7.8-193.14c-3-179.18-34.77-316.22-63.76-409.37-46.08-148.08-177.52-345.4-440.39-740.05-31.53-47.33-126.71-182.18-317.08-451.88-117.38-166.29-155-218.48-217.61-281.61-141.91-143.06-291-220-391.69-262-13,90-50.65,262-178.23,414.78-185.74,222.48-437.71,255.22-615.51,278.33-179,23.27-533.53,69.35-743-170.27-73.56-84.15-107.39-178.57-124.1-244.79-1.21-4.79-2.32-9.42-3.36-13.9-138.88,59.07-302.06,135.44-480.81,233.58-139.48,76.59-239.22,131.72-361.64,221.58-191.9,140.87-160.76,164.64-403.09,374.39-208.95,180.87-419.14,325.09-446.61,474.81-2.9,15.82-10,65.56-25.9,147.35-18.46,94.78-25.42,112.49-28,151.72-2.75,42.1-.12,104.13,28,182.28-21.67,56-58.53,174.07-37.31,320.91,34.09,235.81,192.5,369.46,230,399.49A1371.22,1371.22,0,0,1,444.87,3642.7a1325.07,1325.07,0,0,1,224.86-245.59c30.15,63.69,85.25,98.85,129.52,88.41,43.94-10.36,69.14-63.71,77.72-81.87a205.3,205.3,0,0,0,18.65-69.85c28.81,92.45,107.72,128,149.22,107,31.64-16.05,49.45-69,41.45-126.62,6.15,27.77,27.9,109.19,97.4,150.63,18,10.72,52.91,31.54,80.83,17.46,31.63-15.95,37.65-68.34,45.59-137.53a668.79,668.79,0,0,0,4.14-93.87c15.75,82.1,88.42,124.82,140.93,107,37.21-12.65,65-55.93,68.39-107a542.08,542.08,0,0,0-33.16-161.54,523.3,523.3,0,0,0-114-181.19q68.91-258.15,137.81-516.29" transform="translate(-61.68 -55.5)"/><path class="cls-1" d="M2543.51,4526.73c-4.14,28.35-14,51.59-29.31,62.31-15.84,11.08-36.21,7.86-41.07,22.54-4.47,13.48,9.44,26.1,28.63,62.59,0,0,3.57,6.78,21.76,49.12,8.81,20.49,24.93,72.73,24.87,210.66H270.78v-54.57H171.3q-14.16-93.85-28-187.74-18.47-125.48-36.27-251.05l101.55-45.84c1-127.08,20.2-389.07,175.12-658.18a1250.87,1250.87,0,0,1,286-339.46" transform="translate(-61.68 -55.5)"/><path class="cls-1" d="M2530.38,4407.83" transform="translate(-61.68 -55.5)"/><path class="cls-1" d="M2255.66,3883.37c30.93,87,49.36,156.38,60.62,204.66,17.39,74.62,26.09,111.92,26.94,116.79,11.92,68.47,8.64,88.25,26.44,107.72,31.7,34.7,71.17,3.69,114.49,32,14,9.17,25.61,22.7,34.78,38.8" transform="translate(-61.68 -55.5)"/><path class="cls-3" d="M1376.43,2908.11c-128.93-49.48-190.16-117-222.15-172.05-24.22-41.65-39.31-89.22-82.5-103-39.9-12.75-67.27,15-124.35,36-95.55,35.21-139.85,2.1-236.26,12-72.48,7.45-126.29,34.27-191.08,74.77-16.9,10.57-34.54,22.06-53.46,34.38-187.31,122-300.42,291-360.09,398.58" transform="translate(-61.68 -55.5)"/><path class="cls-2" d="M1472.74,3348.82c168.37,11.14,324.91,63.95,399,125.78s114,104.79,114,104.79c53.38,57.47,53.15,71.15,83.21,87.35,66,35.55,109-7.73,159.27,30.53,42.08,32,49,90.6,49.74,98.24,6.9,66.52-37.9,83.91-40.41,157.18-1.29,37.38,9.82,49.1,40.41,137.53,0,0,21,60.83,49.74,167,34.63,128.14,49.42,240.48,56,305.62a1871.59,1871.59,0,0,1,0,371.11" transform="translate(-61.68 -55.5)"/><path class="cls-2" d="M366.11,4919.76v-91.68l-28-271.79c-2.6-54.23-21.34-638.52,413.45-986.73a989,989,0,0,1,214-130.66" transform="translate(-61.68 -55.5)"/><path class="cls-2" d="M1297.6,3428c168.36-19.23,326.65,6,442.54,53.19,406.42,165.54,677.75,758.8,572,1435.34" transform="translate(-61.68 -55.5)"/><path class="cls-2" d="M462.6,4934l-.12-69.85-28-327.46c-9.74-96.3-15.81-282.17,64.25-490.08,57-148,134.16-246.22,172-290.35,27.72-32.31,168.88-192.49,410.34-278.33q42.11-15,84.35-25.68" transform="translate(-61.68 -55.5)"/><path class="cls-4" d="M3941.07,3389.46c-72.5,141.5-148.77,210.47-143,216.12,6.23,6.1,105.86-63.43,171-186.64,52.07-98.53,26.8-126.79,77.72-206.3,44.05-68.79,98.7-103.44,199-167,109.6-69.49,196.74-102.6,195.85-104.79s-84.15,28-183.42,81.87c-112.14,60.9-174.46,94.75-226.93,165.91C3982.8,3254.3,4000.55,3273.4,3941.07,3389.46Z" transform="translate(-61.68 -55.5)"/><path class="cls-4" d="M4429.13,4021.45c45.67,88.85,70.4,186.41,59.07,192.11-18.2,9.14-86.66-239.76-298.44-418.05-187.11-157.53-394-182.37-391.69-189.93,2-6.61,159.16,16.58,326.41,114.61C4202.32,3765.81,4340.66,3849.35,4429.13,4021.45Z" transform="translate(-61.68 -55.5)"/><path class="cls-4" d="M4407.37,4132.78c21.61,53.8,37.35,115.58,32.12,117.89-8.93,3.93-60.3-173.93-184.44-327.46-150.45-186.05-329.34-239.37-329.52-239C3925.27,3684.65,4282.73,3822.56,4407.37,4132.78Z" transform="translate(-61.68 -55.5)"/><path class="cls-4" d="M4230.18,4086.94c-108.11-219.75-246.75-329.57-242.48-334,4.59-4.76,172.15,114.5,270.45,334,56.51,126.17,73.5,248.3,68.4,250S4297.1,4223,4230.18,4086.94Z" transform="translate(-61.68 -55.5)"/><path class="cls-4" d="M4168,4085.85c-21.6-50.25-42.72-85.89-85-157.18-66.81-112.74-116.49-174.53-115-175.73,2-1.6,78.61,115.64,219.68,313.26,0,0,27.4,38.38,108.8,242.32,4.07,10.19,13.68,35.11,3.11,50.21-6.07,8.67-17.65,12.45-24.87,12C4236.12,4368.36,4234.19,4239.83,4168,4085.85Z" transform="translate(-61.68 -55.5)"/><path class="cls-2" d="M3025.05,4370.73c74.18-3.94,186.6,1.15,309.83,52.4,277.78,115.5,396,376.31,424.07,443.31" transform="translate(-61.68 -55.5)"/><path class="cls-2" d="M3131.74,4157.18c74.71-4,121.47,16.69,149.26,34.55,60.76,39,76.42,93.82,157.5,222.66,34.7,55.14,65.19,98.12,84.53,124.56" transform="translate(-61.68 -55.5)"/><path class="cls-2" d="M2970.65,4934.5c-29.63-25.95-98.34-90.35-83.41-127.16,6.44-15.9,25.14-18.37,103.62-52.39,24.91-10.8,45.07-20.11,58-26.2,10.09-27.37,39.58-97.22,95.33-110.24,60-14,116.78,45.67,190.66,123.34,39.53,41.55,91.89,104.31,141.45,192.1" transform="translate(-61.68 -55.5)"/><path class="cls-2" d="M3227.63,4934.5a331.21,331.21,0,0,1-124.86-101,349.59,349.59,0,0,1-53.88-104.79" transform="translate(-61.68 -55.5)"/><path class="cls-2" d="M2720.4,4450.41a865.59,865.59,0,0,0-52.84,103.7c-9.22,21.56-17.09,42.38-23.84,62.21" transform="translate(-61.68 -55.5)"/><path class="cls-2" d="M3102.77,4405.66a1265.94,1265.94,0,0,0-174.09,196.47,1304.55,1304.55,0,0,0-120.2,205.21L2682.06,4934" transform="translate(-61.68 -55.5)"/><path class="cls-4" d="M3227.12,4484.25c5.22-4,73.78,76.63,132.63,174.64,0,0,26.36,43.9,116.06,231.4h0C3264.11,4563.32,3222.42,4487.81,3227.12,4484.25Z" transform="translate(-61.68 -55.5)"/><path class="cls-4" d="M3281,4484.25c5.22-4,73.79,76.63,132.64,174.64,0,0,26.35,43.9,116.05,231.4C3318,4563.32,3276.31,4487.81,3281,4484.25Z" transform="translate(-61.68 -55.5)"/><path class="cls-4" d="M3600.16,2999.8c-33.24,129.74-55.48,261.25-48.71,263,7.32,2,49-147.55,86-280.52,45.52-163.43,90.47-324.79,82.9-327.45C3712.61,2652.16,3647.65,2814.41,3600.16,2999.8Z" transform="translate(-61.68 -55.5)"/><path class="cls-4" d="M4069.56,2940.85c-60.12,42.18-152.74,118.59-233.15,242.32-90.07,138.6-123,272.3-136.47,350.06A1432.53,1432.53,0,0,1,3844.7,3218.1,1381.42,1381.42,0,0,1,4069.56,2940.85Z" transform="translate(-61.68 -55.5)"/><path class="cls-4" d="M3570.1,1516.43c-47.37,131.72-136.76,133.53-269.41,298-151,187.22-198.09,386.84-192.74,389.67s58.11-193.66,226.93-383.12c147.54-165.57,240.91-165.48,282.89-291.43,30-89.88,8.55-183.7,3.36-207.7-18.39-85.11-62.06-166.79-74.86-162.32C3527.33,1166.11,3631.7,1345.16,3570.1,1516.43Z" transform="translate(-61.68 -55.5)"/><path class="cls-5" d="M1700.25,3294.52" transform="translate(-61.68 -55.5)"/><path class="cls-5" d="M1646.36,3263.4c26.94-224.07,15-389.59-2.07-502.1-7.33-48.27-5.92-140.24-3.11-324.18.88-57.51,2.66-120.11,43.52-150.63,34.18-25.53,80-16.87,104.66-9.82l11.4-114.61a1748.45,1748.45,0,0,1,365.79,2.18c60.18,6.72,116.59,16.19,168.9,27.29q-17.61,562.13-35.23,1124.26a1432.21,1432.21,0,0,1-533.52-6.29" transform="translate(-61.68 -55.5)"/><path class="cls-4" d="M3661.29,1552.45a1232.31,1232.31,0,0,1,230,88.41c170.31,85.87,291.59,196.32,369.93,281.61a3417.82,3417.82,0,0,0-335.73-228.12C3833.63,1639.6,3745,1592.7,3661.29,1552.45Z" transform="translate(-61.68 -55.5)"/><path class="cls-4" d="M3679.94,1487a1139.11,1139.11,0,0,1,180.31,65.49c121.54,56.12,215.37,125.29,282.88,184.47-54.22-35.43-112.23-71-174.08-105.88A3118.47,3118.47,0,0,0,3679.94,1487Z" transform="translate(-61.68 -55.5)"/><path class="cls-1" d="M2172.24,1896.28c128.09,31.62,322.21,61.17,552.31,26.19,14.72-2.23,266.85-42.15,445.57-147.35,50.7-29.84,60.68-44.45,194.81-131,21.08-13.6,44.84-28.72,72.54-55.67,26-25.24,67.31-65.48,88.08-132.07,19-61,11.88-115.57,5.18-146.27" transform="translate(-61.68 -55.5)"/><polygon class="cls-1" points="1967.73 1723.18 1905.39 1775.29 2090.68 1775.58 1967.73 1723.18"/><path class="cls-1" d="M1967.07,1922.47v0Z" transform="translate(-61.68 -55.5)"/><line class="cls-1" x1="2090.88" y1="1866.97" x2="2090.88" y2="1775.29"/><polyline class="cls-1" points="1769.62 1655.75 1738.56 1681.42 1756.18 1775.29 1864.98 1840.78 1864.98 1775.29 1936.48 1722.89"/><line class="cls-1" x1="1805.92" y1="1625.75" x2="1769.62" y2="1655.75"/><ellipse class="cls-4" cx="2199.16" cy="1831.5" rx="13.99" ry="14.74"/><ellipse class="cls-4" cx="2400.19" cy="1855.51" rx="13.99" ry="14.74"/><ellipse class="cls-4" cx="2555.62" cy="1846.78" rx="13.99" ry="14.74"/><ellipse class="cls-4" cx="2739.03" cy="1820.58" rx="13.99" ry="14.74"/><ellipse class="cls-4" cx="2918.3" cy="1775.83" rx="13.99" ry="14.74"/><path class="cls-1" d="M1759,433c-20.73,19-87.79,85.11-101.64,192.47-19,147.19,77.78,249.9,91.18,263.66" transform="translate(-61.68 -55.5)"/><ellipse class="cls-4" cx="3071.66" cy="1708.16" rx="13.99" ry="14.74"/><ellipse class="cls-4" cx="3214.66" cy="1625.2" rx="13.99" ry="14.74"/><path class="cls-2" d="M2046.86,1168.24c7.19,50.62-32.36,71-55.95,140.8-35.6,105.25,3.59,209,16.58,243.41,14,37.22,48.87,129.43,136.78,180.1,44.56,25.69,98.19,27.66,203.61,30.56,138.32,3.8,207.48,5.71,275.12-27.29,90.73-44.25,140.41-117.44,158.54-147.35,16-26.45,78.55-129.6,59.07-248.86-12.19-74.58-46.42-94.11-37.31-150.63,10-62,59.38-89.22,96.37-127.71,95-98.91,129.65-294.63,71.5-445.34-73.73-191.08-295.79-307.84-416.56-258.69-41.86,17-79.7,57.33-146.11,52.4-49.73-3.7-62.66-28.84-108.8-42.57-113.17-33.68-229.84,59.66-248.69,75.31-100.87,83.73-123.1,202.18-135.75,269.61-10.81,57.61-45.33,241.63,48.7,352.55C2000.46,1107.6,2040.08,1120.47,2046.86,1168.24Z" transform="translate(-61.68 -55.5)"/><path class="cls-3" d="M3462.34,900.82c16.58,2.87,33.49,44.52,35.23,213.93" transform="translate(-61.68 -55.5)"/><path class="cls-3" d="M1836.51,1393.09c-87.65-328.22-92.09-503.41-77.72-603.61,13.54-94.39,56.42-210.34,12.44-320.9-7.28-18.28-24.79-56.19-9.33-85.14,16.95-31.72,61.11-29.52,115-42.57,39.68-9.6,49.06-18.86,163.72-82.95,163.13-91.19,246.16-137.23,318.12-159.36,39-12,99.24-30.09,177.2-32.75,112.9-3.85,164.54,28,373,101.51,257.76,90.92,307.05,87.49,338.84,150.63" transform="translate(-61.68 -55.5)"/><path class="cls-1" d="M2769.11,1358.16c2,14.2-78,45.09-159.58,56.76-77,11-83.06-5.43-199-6.55-50.05-.48-255.94-1.09-255.94-1.09-32.25-.1-79.47-.23-97.41-30.56-10.31-17.44-11.32-45.52-1-52.4,8.37-5.59,22.13,4.24,32.12,9.83,34.76,19.44,68.09,12.23,121.24,6.55a1771,1771,0,0,1,203.1-7.64c89.75,2,85.26,13.16,161.65,10.91,21.21-.62,62.43-2.69,119.16,1.09C2739.92,1348.16,2767.94,1350,2769.11,1358.16Z" transform="translate(-61.68 -55.5)"/><path class="cls-1" d="M2770.14,1351.61c-.26,1.43-12.55-1.08-52.84-5.46-128.87-14-153.9-4.76-257-18.55-49.86-6.67-52.09-9.92-86-12-11.72-.72-64.1-3.58-135.75,5.46-47.11,5.94-58.51,11.47-94.29,10.92-29.32-.46-75.37-5-75.65-12-.53-13.55,170.14-47.91,349.21-39.3C2609.37,1289.88,2771.11,1346.38,2770.14,1351.61Z" transform="translate(-61.68 -55.5)"/><path class="cls-2" d="M2123.54,1279.57c-11.06-194.94,20.37-349.42,71.5-417,32.42-42.81,78.75-67.67,78.75-67.67,13.15-7.05,74.34-39.88,99.48-16.37,18.88,17.65,6.63,56.93,17.62,60,10.37,2.93,19.27-32.61,49.74-51.3,25.12-15.42,52.41-11.71,66.31-9.82,96.08,13,156.76,155.93,173,194.29,27.16,64,45.49,107.1,35.23,162.63-19.79,107.2-126.95,157.06-141.92,163.74" transform="translate(-61.68 -55.5)"/><path class="cls-1" d="M2490.36,869.16c-10.43-8.81-29.49.11-45.59,7.64A129.07,129.07,0,0,0,2397.1,915c-10.46,13.65-14.64,24.82-15.54,27.29-4.68,12.87-10,27.61-5.18,33.83,13.24,17,110.72-18.61,120.2-75.31C2497,898.16,2500.45,877.68,2490.36,869.16Z" transform="translate(-61.68 -55.5)"/><path class="cls-1" d="M2274.83,852.79c8.21,7.16,21.93,19.06,39.38,33.84,17,14.36,21.17,17.66,24.87,24,4.61,7.93,12.87,28.24-4.15,69.86a197.05,197.05,0,0,1-42.48-31.66c-14.44-14.12-24.37-23.83-29-39.29-8.38-27.87,6.29-54.79,11.4-63.31" transform="translate(-61.68 -55.5)"/><path class="cls-1" d="M3288.77,375.05c55.16,25.3,133.33,71.82,174.09,155.51,78.46,161.11-33.54,353.65-30.05,354.71,3.77,1.14,158.71-217,57-403.5-53.15-97.46-165.58-188.56-230-164.65-72,26.69-85,196.67-54.76,308.77,20.7,76.8,57.81,112.08,57,201.13-.22,24.54-3.29,49.25,14,67,29.06,29.9,94.75,18.82,146,4.66" transform="translate(-61.68 -55.5)"/><path class="cls-1" d="M3284.63,494.23c6.07,7.87,21.2,25.24,46.63,33.84,37.13,12.56,68.65-2.9,75.64-6.55" transform="translate(-61.68 -55.5)"/><path class="cls-1" d="M3446.28,590.28c-16.66-3.8-37.3-5.53-48.71,6.55-19.62,20.79,2.51,67.13,9.33,110.24,7.29,46.11.74,111.73-57,199.75" transform="translate(-61.68 -55.5)"/><path class="cls-4" d="M1252.6,3121.5c-39.85-74.73-67.72-69.89-121.24-157.18-41.35-67.43-63.76-134.86-59.06-137.53s32.73,65.52,102.58,160.45c41.82,56.84,104.33,124.54,118.13,176.83,5,19,3.66,35.71,16.58,60,4.52,8.5,12.22,20.64,11.4,37.11-.29,5.89-2,18.81-6.22,19.65C1303.89,3283,1295.07,3201.15,1252.6,3121.5Z" transform="translate(-61.68 -55.5)"/><path class="cls-4" d="M1004.94,3072.38c22.57,48.07,38.79,82.62,46.63,129.89,6.34,38.19,12.39,115.92,29,127.71.74.53,8.8,6.1,10.36,4.36.78-.87-.71-2.91-1-6.55A18.65,18.65,0,0,1,1092,3318c4.61-11-45.74-103.7-64.25-155-14.17-39.28-8.13-50-26.94-85.14-14.94-27.9-21.57-26.37-37.31-52.39-24.75-41-16.3-57.9-40.41-126.62-17.58-50.11-36.82-83.16-35.23-84,1.33-.74,15.34,22,28,48,26.65,54.82,24.77,77.85,46.63,129.89C979.09,3032.29,981.57,3022.59,1004.94,3072.38Z" transform="translate(-61.68 -55.5)"/><path class="cls-4" d="M741.74,2968.69A2222.31,2222.31,0,0,1,835,3181.53c23,60.93,41.94,119.2,57.62,173.9l7.66-21.09c-15.59-50.21-34.64-104.06-58-160.45A1830.64,1830.64,0,0,0,741.74,2968.69Z" transform="translate(-61.68 -55.5)"/><path class="cls-4" d="M686.82,3314.7c8.65,53-4.79,98.35-9.32,98.23-5.68-.15,8.06-71.37-25.91-148.44-22.85-51.86-42.92-51-58-96.06-25.52-76,5.77-155.74,12.44-155,6.29.71-17.92,72,12.43,157.18C641.93,3236.53,676.09,3248.9,686.82,3314.7Z" transform="translate(-61.68 -55.5)"/><path class="cls-4" d="M367.67,3264.49c45.77,152,171.52,234.14,169.94,235.76s-138.7-82.1-185.49-242.31c-61.43-210.39,74.66-409.39,77.72-408.23S304.92,3056.12,367.67,3264.49Z" transform="translate(-61.68 -55.5)"/><path class="cls-4" d="M268.19,3336.53c69.41,163.38,214.35,233.25,209.32,240.13-4.28,5.85-105.74-49.07-184.45-161.54-13.11-18.73-30.46-43.79-45.59-78.59-65.32-150.18-16.94-315.09-8.29-314.36C247.49,3022.88,199.6,3175.07,268.19,3336.53Z" transform="translate(-61.68 -55.5)"/><path class="cls-4" d="M168.71,3137.87c-7.4,19.07-55.38,148.92,10.37,283.79,76,155.88,236.09,179.44,249.72,181.2-35.18-9.13-120.28-36.72-187.55-120.07C126.16,3340.2,163.92,3159.16,168.71,3137.87Z" transform="translate(-61.68 -55.5)"/><line class="cls-6" x1="625.15" y1="3259.2" x2="826.17" y2="3314.86"/><path d="M879.56,3358.36c-1.25,1.72-47.3-57.5-104.66-51.3-51.92,5.6-83.45,61.6-85,60s28.88-65.55,83.94-72C834.91,3287.85,880.86,3356.57,879.56,3358.36Z" transform="translate(-61.68 -55.5)"/><path d="M1066.08,3278.68c-.84,2.31-32.48-19.3-71.5-14.19-59.17,7.74-92.72,71.34-94.3,69.85s33-76.21,93.26-81.86C1033,3248.78,1067,3276.24,1066.08,3278.68Z" transform="translate(-61.68 -55.5)"/><path d="M1303.37,3257.94c-.15,2.51-42.77-7.07-98.44,6.55-65.8,16.09-104.35,53.46-105.69,51.3-1.44-2.32,40.42-48.85,104.66-63.31C1256.88,3240.56,1303.54,3255.3,1303.37,3257.94Z" transform="translate(-61.68 -55.5)"/><path class="cls-4" d="M1502.33,3170.62c-1.18,5.64-43.79-11.27-93.26,3.27-60.44,17.77-89.66,70.31-91.19,68.77-2-2,46.62-91.12,118.13-95C1471.71,3145.78,1503.37,3165.64,1502.33,3170.62Z" transform="translate(-61.68 -55.5)"/><path d="M927.23,3315.79" transform="translate(-61.68 -55.5)"/><path class="cls-5" d="M2188.31,3638.88c-7.42-19.75-13.31-45.36-2.08-64.4,11.57-19.62,30.87-14.56,45.6-30.57,31.48-34.21-17.51-99.92,6.21-134.25,19.15-27.71,65.77-6.24,183.42,3.27,123.43,10,160.33-6.51,186.51,26.2,34.74,43.39-10.46,97.08,21.77,140.8,49.29,66.9,192.18-8.38,237.29,57.85,26.54,39-12.46,80.35,14.51,119,29.1,41.69,94.61,22.28,239.36,16.37,188.73-7.7,216.5,19.63,254.91-16.37,29.67-27.8,34.29-114.59,43.52-288.16.91-17,5.12-100.32,0-209.57-4.93-105.33-14.13-140.82-31.08-173.55-28.15-54.34-52.26-44.8-77.72-95-40.65-80.1,1.48-135-34.19-180.1-43.07-54.49-120.93,4.67-171-39.3-77.34-67.93,56.34-255-12.43-504.28-16.07-58.24-33-119.62-86-157.17-73.48-52.06-119,10.56-290.14-22.92-71.68-14-128.86-37.78-174.09-3.28-22.92,17.49-22.76,34.67-46.63,52.39-48,35.67-113.56,14.22-158.54,3.28-215.84-52.52-359.6,39.23-410.34-42.57-7.8-12.58-19.49-39.07-28-65.49-16.25-50.59-11-70.52-28-101.51-3-5.54-22.87-40.88-56-55.67-62.38-27.88-143.72,29.88-184.45,76.41-69.85,79.78-70.29,183.66-70.46,224.85-.33,77.55,20.55,91.61,28,163.72,12.05,117-32,186.41-71.49,307.81-26.67,81.89-56.59,203.66-62.18,365.66" transform="translate(-61.68 -55.5)"/><path class="cls-5" d="M2335.45,3315.79c34.81,37.28,81.43,19.74,237.29,31.65,88.29,6.75,162.16,7.92,214.5,7.64a404.18,404.18,0,0,1,26.94-153.9A387.28,387.28,0,0,1,2894,3074.56q9.33-97.68,18.65-195.38c9.75-102.12.32-117.13,6.22-258.69,6.85-164.37,14.29-146.58,9.33-193.19-6-56.32-18.79-100.41,3.11-147.36,14.33-30.72,37.62-50,55.43-61.63q6.39-13.72,13-26.78l-523.81-38-119.69,51.1c-10.8,325.16-27.45,517.47-41.45,635.26-6.08,51.23-6.82,123.66-8.29,268.51C2305,3251.23,2309.39,3287.88,2335.45,3315.79Z" transform="translate(-61.68 -55.5)"/><path class="cls-5" d="M2663.93,3458.78c42.8,2.35,101.57-2.19,143-42.57,65.6-63.95,15.55-147.43,80.82-242.32,59.15-86,141.25-77,161.65-160.45,7.55-30.85-.66-44.39-6.21-98.24-8-77.69,2.95-109,15.54-232.49,15.32-150.22,24.17-243.59,3.11-356.92-11.79-63.44-33.47-135.95-43.52-134.26-14.15,2.39,3.35,150.37,6.22,291.43,2.66,130.92-5.94,321.9-62.18,559.95" transform="translate(-61.68 -55.5)"/><path class="cls-5" d="M3326.84,3013.43c-21.92,12.48-80,41.47-156.2,32.75-57-6.51-98.14-31.09-118.85-45.63" transform="translate(-61.68 -55.5)"/><path class="cls-5" d="M3276.34,2810.42c2.38,15.36-66.31,52.83-136.78,45.84-41.2-4.08-88.24-23.88-87.77-41.49.42-15.68,38.38-26.22,42.17-27.27,16.32-4.54,23.33-2.36,70.46,1.09,38.36,2.8,52.44,2.73,77.72,8.73C3264.4,2802.61,3275.53,2805.25,3276.34,2810.42Z" transform="translate(-61.68 -55.5)"/><ellipse class="cls-7" cx="3078.4" cy="3336.15" rx="187.04" ry="197.02"/><polyline class="cls-7" points="1691.41 2826.96 1678.98 3167.51 2139.06 3207.89 2157.71 2854.24"/><line class="cls-8" x1="1998.14" y1="3187.16" x2="2014.72" y2="2944.84"/><line class="cls-8" x1="1902.8" y1="3187.16" x2="1905.91" y2="2925.19"/><line class="cls-8" x1="1786.76" y1="3176.97" x2="1786.75" y2="2884.81"/><path class="cls-7" d="M1740.66,2754.75c5.4,10,84.64,150.81,245.58,160.45,160.79,9.63,254.64-120.55,261.13-129.89l59.06,54.58c-15.47,18.87-118.2,140-286,140.8-200.23,1-311.89-170.16-320.19-183.37Z" transform="translate(-61.68 -55.5)"/><path class="cls-8" d="M2260.84,2611.22c-5.47,147-114.45,290-260.09,298.53-135,7.91-241.82-103.19-278.74-213.94-6.85-20.54-36.2-115.8,6.21-219.39,44.81-109.43,158.64-201.21,286-186.65C2162,2306.66,2266.49,2459.71,2260.84,2611.22Z" transform="translate(-61.68 -55.5)"/><path class="cls-5" d="M2943.71,2266.84l-587.54-62.21" transform="translate(-61.68 -55.5)"/><path class="cls-1" d="M2810,613.2c-5.71,35.13-115.72,51.63-199,22.93-18.92-6.53-54.2-18.69-55.95-39.3-2.31-27.07,53.88-61.34,105.69-65.49C2735.77,525.35,2815.22,581.3,2810,613.2Z" transform="translate(-61.68 -55.5)"/><path class="cls-1" d="M2339.21,586.4c1,35.62-103.83,74.57-190.8,63.66-19.77-2.48-56.63-7.1-62.19-26.94-7.31-26.07,41.38-71.3,91.41-86.09C2250,515.63,2338.34,554,2339.21,586.4Z" transform="translate(-61.68 -55.5)"/><path class="cls-1" d="M1969.66,3792.78c367.21,403.09,256.41,1066.6,245.59,1067.5-9.65.8,71.34-526.48-237.3-938.7-220.55-294.58-535.08-390.18-526.4-408.23C1459.84,3496.14,1757.13,3559.47,1969.66,3792.78Z" transform="translate(-61.68 -55.5)"/><path class="cls-3" d="M4188.09,4450.41c-21.64,19.11-31,484.09-31,484.09" transform="translate(-61.68 -55.5)"/><circle class="cls-2" cx="2601.32" cy="535.5" r="34"/><circle class="cls-2" cx="2150.32" cy="531.5" r="34"/><path class="cls-9" d="M2135.87,2707.31l-94.09-75.67a53.28,53.28,0,0,0,5.35-62.14l48.19-38.89,50.43-42.15a7.52,7.52,0,0,0,1-10.58,3.8,3.8,0,0,0-.33-.37l-6.44-6.81A194.57,194.57,0,0,0,2012.09,2410l1.27-25.92a15.09,15.09,0,0,0-.18-5.19,13.5,13.5,0,0,0-2.37-4.73,11.89,11.89,0,0,0-4.23-3.24,11.69,11.69,0,0,0-5.08-1.38,12,12,0,0,0-5.19,1,13.55,13.55,0,0,0-4.46,2.89,11.5,11.5,0,0,0-2.84,4.32,9.32,9.32,0,0,0-.64,5.19l-1.31,26.69a193.4,193.4,0,0,0-34.85,5.1l1.59-33.24a15.09,15.09,0,0,0-.18-5.19,13.22,13.22,0,0,0-2.39-4.73,11.54,11.54,0,0,0-4.21-3.24,11.69,11.69,0,0,0-5.08-1.38,12,12,0,0,0-5.19,1,13.63,13.63,0,0,0-4.48,2.89,11.54,11.54,0,0,0-2.74,4.3,9.32,9.32,0,0,0-.65,5.19l-2.36,42.44a190,190,0,0,0-96.2,81.45,183.47,183.47,0,0,0-22.71,122.21,187,187,0,0,0,61,109.35,195.43,195.43,0,0,0,117.7,48.4l141.21,6.45a7.82,7.82,0,0,0,8.22-7.35l2.89-69.35A8,8,0,0,0,2135.87,2707.31Zm-145.27,43.41a162,162,0,0,1-94.66-36.08,154.39,154.39,0,0,1-52.67-84.77,150.94,150.94,0,0,1,11-98.25,156.08,156.08,0,0,1,70.25-71.37l-2.31,50.52a15.21,15.21,0,0,0,.19,5.21,13.4,13.4,0,0,0,2.38,4.72,13.6,13.6,0,0,0,9.29,4.62,12,12,0,0,0,5.19-.94,13.44,13.44,0,0,0,4.46-2.89,11.38,11.38,0,0,0,2.84-4.33,9.3,9.3,0,0,0,.65-5.18l2.77-62.06a162.76,162.76,0,0,1,54.7-6.75,159.16,159.16,0,0,1,93.15,34.86,3.81,3.81,0,0,1,.61,5.36,3.39,3.39,0,0,1-.49.51l-76.53,62.81a58,58,0,0,0-21.16-5.1,59.41,59.41,0,0,0-23.9,3.81,56,56,0,0,0-32.45,33.29,52.31,52.31,0,0,0-2.76,23.37,55.85,55.85,0,0,0,7.37,22.43,58,58,0,0,0,16.27,17.51,59.57,59.57,0,0,0,22.37,9.21,56.64,56.64,0,0,0,24.17-.73l91.52,73.68a4,4,0,0,1,1.44,3.14l-1.21,24.58a4,4,0,0,1-4.12,3.69ZM2020.11,2598a22.46,22.46,0,0,1-4.26,12,22.83,22.83,0,0,1-10.41,7.65,21.28,21.28,0,0,1-12.87.62,24.2,24.2,0,0,1-11.21-6.43,21,21,0,0,1-3.77-23.83,22.41,22.41,0,0,1,8.71-9.46,24.1,24.1,0,0,1,12.57-3.21,22.19,22.19,0,0,1,15.61,7.17,21.11,21.11,0,0,1,5.61,15.44Z" transform="translate(-61.68 -55.5)"/><path class="cls-7" d="M980.94,865.34c13.77,4.35,30.12,11.82,31.17,26.54a76.82,76.82,0,0,0,34.27,15.35c-.87-4.89,3-10.11,7.79-10.61s9.62,3.79,9.75,8.76a57,57,0,0,0,41.19,23.55c-4.08,6.77,3.82,14.36,10.62,18.23L1147.2,965l3.45,8,.35-30.35" transform="translate(-61.68 -55.5)"/><path class="cls-7" d="M951.21,856l29.73,9.39" transform="translate(-61.68 -55.5)"/><path class="cls-7" d="M931.12,813.12a39.3,39.3,0,0,0,12.93,2.12c-.18,5.18-5,9.69-10.07,9.4L942,853l9.26,2.92" transform="translate(-61.68 -55.5)"/><path class="cls-7" d="M350.54,437.65c-.78,7.15,7.66,11.46,14.65,12.18s15.18.56,19.48,6.25c3.45,4.56,2.79,11,4.52,16.5,5.11,16.2,27.68,18.41,37.43,32.2,4.62,6.53,7.07,16.18,14.75,18,5.27,1.23,10.76-2.1,16.06-1,4.42.89,7.7,4.59,10.64,8.07l40.54,48.12,5.26-22.23,17.84,24c1.62,2.18,3.48,4.51,6.11,5,2.82.51,5.48-1.29,7.8-3l16.3-12" transform="translate(-61.68 -55.5)"/><path class="cls-7" d="M769.26,1157.2c11.07,12.37,27.36,20.14,44,20.2a24.54,24.54,0,0,0,8.42,26.95c-13.36,13.35-8.27,35.67-2.27,53.58" transform="translate(-61.68 -55.5)"/><path class="cls-7" d="M334.52,1099.14c10.81-13.81,9.46-33.09,11.47-50.5s12-37.58,29.51-37.94c10-.21,18.71,6.34,27.58,11s20.91,7.21,28.09.2c-.19-8.47-.29-17.36,3.66-24.86s13.43-12.8,21.1-9.19c9.55,4.49,9.59,17.84,8.17,28.3l1.67-31.46c.42,7,11.06,2.95,17.39,0,10.33-4.75,22.21.14,33.1,3.39a43.48,43.48,0,0,0,17.4,1.77" transform="translate(-61.68 -55.5)"/><path class="cls-4" d="M2104.92,2525.05a175.5,175.5,0,0,1-6.25,150.14l22,25.89c15.89-28.12,25.38-62.8,26.91-98.32,1.72-37.48-5.43-74.65-20.15-105l-13.93,16.38Z" transform="translate(-61.68 -55.5)"/><circle class="cls-10" cx="665.32" cy="710.5" r="513"/><circle class="cls-5" cx="4623.32" cy="718.5" r="280"/><path class="cls-4" d="M1470,1704c120.28,78.27,136.25,240.8,133,242-3.07,1.13-21.36-142.55-138-226-63-45-131-55.7-130-59S1407.7,1663.46,1470,1704Z" transform="translate(-61.68 -55.5)"/><path class="cls-4" d="M1498,1678c120.28,78.27,136.25,240.8,133,242-3.07,1.13-21.36-142.55-138-226-63-45-131-55.7-130-59S1435.7,1637.46,1498,1678Z" transform="translate(-61.68 -55.5)"/><path class="cls-4" d="M1539,1659c120.28,78.27,136.25,240.8,133,242-3.07,1.13-21.36-142.55-138-226-63-45-131-55.7-130-59S1476.7,1618.46,1539,1659Z" transform="translate(-61.68 -55.5)"/><path class="cls-4" d="M1576,1637c120.28,78.27,136.25,240.8,133,242-3.07,1.13-21.36-142.55-138-226-63-45-131-55.7-130-59S1513.7,1596.46,1576,1637Z" transform="translate(-61.68 -55.5)"/><path class="cls-4" d="M927,2625c2.29-3.88-152.48-162.73-369-164-188.9-1.11-329.76,118.27-328,122s136.43-102.74,323-102C771.31,2481.86,924.75,2628.82,927,2625Z" transform="translate(-61.68 -55.5)"/><polygon class="cls-11" points="2579.85 2416.96 2713.66 2694.13 2546.92 2775.41 2385.91 2664.31 2579.85 2416.96"/><polygon class="cls-12" points="2522.79 2945.24 2711.22 2735.23 2539.36 2815.99 2388.76 2704.23 2522.79 2945.24"/><polyline class="cls-11" points="2701.55 2694.62 2559.28 2602.66 2394.79 2661.77"/><line class="cls-12" x1="2522.79" y1="2945.24" x2="2535.95" y2="2815.64"/><line class="cls-11" x1="2579.85" y1="2416.96" x2="2544.2" y2="2768.24"/><polygon class="cls-11" points="4640.82 460.05 4767.41 722.24 4609.67 799.12 4457.36 694.03 4640.82 460.05"/><polygon class="cls-12" points="4586.85 959.78 4765.09 761.12 4602.52 837.51 4460.05 731.79 4586.85 959.78"/><polyline class="cls-11" points="4755.95 722.71 4621.36 635.71 4465.76 691.63"/><line class="cls-12" x1="4586.85" y1="959.78" x2="4599.29" y2="837.18"/><line class="cls-11" x1="4640.82" y1="460.05" x2="4607.1" y2="792.34"/><polygon class="cls-13" points="647.15 286.79 928.58 711.93 672.98 882.51 383.93 736.03 647.15 286.79"/><polygon class="cls-13" points="671.22 1166.66 933.72 779.94 669.61 950.81 397.49 800.92 671.22 1166.66"/><polyline class="cls-13" points="908.81 715.44 654.77 596.19 397.93 729.88"/><line class="cls-13" x1="671.22" y1="1166.66" x2="663.93" y2="951"/><line class="cls-13" x1="647.15" y1="286.79" x2="666.92" y2="871.35"/><path class="cls-1" d="M1743.27,519a78.31,78.31,0,0,0-25.76,39.72c-5.29,19.49-2.82,40.13-.31,60.17l2.38,19c1.91,15.16,3.81,30.33,6.43,45.39" transform="translate(-61.68 -55.5)"/><path class="cls-1" d="M3297,969c-24.8,56.8-62,146.71-100,260-69.24,206.61-69.27,277.17-128,360-46.79,66-136.74,148.07-328,192" transform="translate(-61.68 -55.5)"/></svg>